<svg width="44" height="43" viewBox="0 0 44 43" fill="none" xmlns="http://www.w3.org/2000/svg">
<rect width="44" height="43" rx="21.5" fill="black"/>
<path d="M33.0001 22L23.6271 31.373C23.4301 31.57 23.1962 31.7264 22.9388 31.833C22.6814 31.9397 22.4055 31.9946 22.1269 31.9947C21.5642 31.9948 21.0245 31.7713 20.6266 31.3735C20.2286 30.9757 20.005 30.4361 20.0049 29.8734C20.0048 29.3107 20.2282 28.771 20.6261 28.373L30.0001 19" stroke="#FFB42A" stroke-width="2" stroke-linecap="round" stroke-linejoin="round"/>
<path d="M36 25L40 21" stroke="#FFB42A" stroke-width="2" stroke-linecap="round" stroke-linejoin="round"/>
<path d="M39.5 21.5L37.586 19.586C37.2109 19.211 37.0001 18.7024 37 18.172V17.828C36.9999 17.2976 36.7891 16.789 36.414 16.414L34.757 14.757C33.6321 13.6323 32.1067 13.0003 30.516 13H27L28.243 14.243C29.3679 15.3681 29.9999 16.894 30 18.485V20L32 22H33.172C33.7024 22.0001 34.211 22.2109 34.586 22.586L36.5 24.5" stroke="#FFB42A" stroke-width="2" stroke-linecap="round" stroke-linejoin="round"/>
<path d="M12.9999 22L22.3729 31.373C22.5699 31.57 22.8038 31.7264 23.0612 31.833C23.3186 31.9397 23.5945 31.9946 23.8731 31.9947C24.4358 31.9948 24.9755 31.7713 25.3734 31.3735C25.7714 30.9757 25.995 30.4361 25.9951 29.8734C25.9952 29.3107 25.7718 28.771 25.3739 28.373L15.9999 19" stroke="#FFB42A" stroke-width="2" stroke-linecap="round" stroke-linejoin="round"/>
<path d="M10 25L6 21" stroke="#FFB42A" stroke-width="2" stroke-linecap="round" stroke-linejoin="round"/>
<path d="M6.5 21.5L8.414 19.586C8.7891 19.211 8.99989 18.7024 9 18.172V17.828C9.00011 17.2976 9.2109 16.789 9.586 16.414L11.243 14.757C12.3679 13.6323 13.8933 13.0003 15.484 13H19L17.757 14.243C16.6321 15.3681 16.0001 16.894 16 18.485V20L14 22H12.828C12.2976 22.0001 11.789 22.2109 11.414 22.586L9.5 24.5" stroke="#FFB42A" stroke-width="2" stroke-linecap="round" stroke-linejoin="round"/>
</svg>
